<svg xmlns="http://www.w3.org/2000/svg" width="760" height="800" viewBox="0 0 760 800"><rect width="760" height="800" fill="#EDEFE4"/><defs><pattern id="blocks" width="83" height="72" patternUnits="userSpaceOnUse"><rect x="8" y="8" width="64" height="53" rx="7" fill="#E2E6D9"/><path d="M0 70H83M81 0V72" stroke="#FAFBF6" stroke-width="8"/></pattern></defs><rect width="760" height="800" fill="url(#blocks)"/><path d="M565-20C470 100 590 230 475 390S470 650 330 830" stroke="#BAD7D0" stroke-width="43" fill="none"/><path d="M570-20C475 100 595 230 480 390S475 650 335 830" stroke="#D5E7DF" stroke-width="3" fill="none"/><path d="M650-30Q550 70 690 200T660 420L820 580V0" fill="#CBD9BA"/><path d="M25 105L250 35 330 160 170 245 30 210Z" fill="#D0DDBF"/><path d="M-20 415 770 270M-20 640 770 520M175-20 260 820" stroke="#FAFBF6" stroke-width="17" fill="none"/><path d="M-20 415 770 270M-20 640 770 520" stroke="#E8DCC1" stroke-width="3"/><path d="M333 612 280 530 360 444 520 397 585 255" fill="none" stroke="#FFFFFF" stroke-width="9" stroke-linejoin="round"/><path d="M333 612 280 530 360 444 520 397 585 255" fill="none" stroke="#355C42" stroke-width="4" stroke-dasharray="7 7"/><g font-family="Arial" font-size="12" fill="#7C8979" letter-spacing="3"><text x="95" y="325">DOWNTOWN KYOTO</text><text x="542" y="570">HIGASHIYAMA</text><text x="310" y="140">SAKYO</text></g><text transform="translate(480 200) rotate(76)" font-family="Georgia" font-style="italic" font-size="16" fill="#6B9890">Kamo River</text><circle cx="333" cy="612" r="20" fill="#244D3C" stroke="#fff" stroke-width="5"/><text x="333" y="617" font-family="Arial" font-size="13" text-anchor="middle" fill="#fff">1</text><rect x="174" y="563" width="158" height="30" rx="7" fill="#fff"/><text x="183" y="583" font-family="Arial" font-size="12" fill="#244D3C">Nishiki Market</text><circle cx="360" cy="444" r="20" fill="#244D3C" stroke="#fff" stroke-width="5"/><text x="360" y="449" font-family="Arial" font-size="13" text-anchor="middle" fill="#fff">2</text><rect x="181" y="395" width="158" height="30" rx="7" fill="#fff"/><text x="190" y="415" font-family="Arial" font-size="12" fill="#244D3C">Gion backstreets</text><circle cx="520" cy="397" r="20" fill="#244D3C" stroke="#fff" stroke-width="5"/><text x="520" y="402" font-family="Arial" font-size="13" text-anchor="middle" fill="#fff">3</text><rect x="541" y="348" width="158" height="30" rx="7" fill="#fff"/><text x="550" y="368" font-family="Arial" font-size="12" fill="#244D3C">Tea at 14:00</text><circle cx="585" cy="255" r="20" fill="#244D3C" stroke="#fff" stroke-width="5"/><text x="585" y="260" font-family="Arial" font-size="13" text-anchor="middle" fill="#fff">4</text><rect x="381" y="206" width="158" height="30" rx="7" fill="#fff"/><text x="390" y="226" font-family="Arial" font-size="12" fill="#244D3C">Philosopher’s Path</text><g transform="translate(690 55)" fill="#244D3C"><path d="M0 20 10-5 20 20 10 15Z"/><text x="10" y="-15" font-family="Arial" font-size="12" text-anchor="middle">N</text></g><text x="25" y="770" font-family="Arial" font-size="10" fill="#687369">ELSEWHERE · ILLUSTRATED ROUTE · NOT FOR NAVIGATION</text></svg>